<svg width="553" height="339" viewBox="0 0 553 339" fill="none" xmlns="http://www.w3.org/2000/svg">
<path d="M459.5 152.2H384.5V271.6H459.5V152.2Z" fill="black"/>
<path d="M276.3 338.9C428.896 338.9 552.6 330.752 552.6 320.7C552.6 310.648 428.896 302.5 276.3 302.5C123.704 302.5 0 310.648 0 320.7C0 330.752 123.704 338.9 276.3 338.9Z" fill="#5F5CA9"/>
<path d="M200 150.3C219.8 164.3 236.5 182.6 252.3 200.8C260.2 209.8 283.8 247.2 291 256.8C304.6 275 298.3 274.7 273.9 287.7C270.8 289.3 267.4 290.4 264 290.7C223 294.9 204.1 241.2 191.8 212.3C186.5 199.8 180.7 184.3 176.1 171.4C179.6 148.5 200 150.3 200 150.3Z" fill="url(#paint0_linear_197_256)"/>
<path d="M188.7 288.2C209.7 276.2 233.4 268.7 256.5 262.1C268 258.8 311.9 253.1 323.6 250.7C345.8 246 342.9 251.7 344.4 279.3C344.6 282.8 344.1 286.3 342.9 289.6C329.4 328.5 272.7 323 241.3 321.9C227.7 321.5 211.2 320.1 197.6 318.8C178.5 305.9 188.7 288.2 188.7 288.2Z" fill="url(#paint1_linear_197_256)"/>
<path d="M180.5 297C180.5 295 180 292.9 179.5 290.8C179.4 290.2 178.5 284.6 178.6 284C179.5 275.2 184.6 251.2 184.6 251.2L160.4 247.4C160.4 247.4 160.8 268.9 155.6 280.7C144 285.1 123.7 290.3 123.7 290.3C123.7 290.3 101.6 290.7 100.4 291C99.2 291.3 96.3 291.7 92.6 294.2C92.6 294.2 89.3 299.4 115.7 307.6C115.7 307.6 127 311.9 146.2 311.6C150.3 311.8 154.4 312.1 158.5 312.3C162.7 312.5 175.3 313.9 177.1 313C177.8 312.6 178.3 312.2 178.7 311.8C181.5 308.3 180.4 301.2 180.5 297Z" fill="url(#paint2_linear_197_256)"/>
<path d="M171.1 269.4C171.4 270.8 171.6 272.2 171.8 273.6C172.5 272.4 173.1 271.1 173.7 269.8L171.1 269.4Z" fill="#FED8B6"/>
<path d="M179.5 290.8C179.4 290.5 179.1 288.5 178.9 286.7C177.9 287.1 176.9 287.4 176 287.7C164.9 291.4 153.8 289.3 143.1 285.3C142.9 285.2 142.7 285.1 142.5 285.1C133 288 123.8 290.3 123.8 290.3C123.8 290.3 101.7 290.7 100.5 291C99.3001 291.3 96.4001 291.7 92.7001 294.2C92.7001 294.2 89.4001 299.4 115.8 307.6C115.8 307.6 127.1 311.9 146.3 311.6C150.4 311.8 154.5 312.1 158.6 312.3C162.8 312.5 175.4 313.9 177.2 313C177.9 312.6 178.4 312.2 178.8 311.8C181.5 308.3 180.5 301.2 180.6 297C180.5 295 180 292.8 179.5 290.8Z" fill="url(#paint3_linear_197_256)"/>
<path d="M187.4 150.1C187.3 150.1 187.3 150.1 187.2 150.1C176.2 149.8 166.9 158.1 165.8 169C163.2 195.8 159.6 235.5 157.5 258.1L182.4 262.8C189.5 240.4 195.3 217.5 199.1 194.3C200.7 184.2 202.4 167.6 202.8 157.4C202.9 155.5 199.8 152.3 199.9 150.2C194.9 149.5 192.9 150.3 187.4 150.1Z" fill="url(#paint4_linear_197_256)"/>
<path d="M246.8 89.4L251.5 103.4L243.4 106L246.8 89.4Z" fill="url(#paint5_linear_197_256)"/>
<path d="M271.2 102.8C271.5 107.4 272.6 134.2 272.6 134.2C275.6 137.1 289 137.2 294.3 132C298.5 127.9 298.7 124.4 298.7 124.4L294.1 85.4L271.2 102.8Z" fill="url(#paint6_linear_197_256)"/>
<path d="M289.9 56L292.4 69.8L296.2 90.9L297.3 96.8C285.5 120.9 263.2 125 255.4 117.9C247.5 110.8 240.9 67.1 240.9 67.1L289.9 56Z" fill="url(#paint7_linear_197_256)"/>
<path d="M288.4 117.5C288.4 117.5 268.6 82.7 263 80.1C257.5 77.5 240 83.1 229.4 69.6C219 56.3 224.1 48.6 227.7 47.6C231.3 46.6 239.3 59.8 250.9 50.7C262.8 41.4 288.2 39.5 292.9 49.2C292.9 49.2 309 49.6 307.1 71.6C305.3 93.6 300.6 112.3 295.5 114.3L288.4 117.5Z" fill="url(#paint8_linear_197_256)"/>
<path d="M275 79C280.8 83 281.5 95.7 271.5 103.6L265.6 83C265.9 79.8 271.2 76.4 275 79Z" fill="url(#paint9_linear_197_256)"/>
<path d="M297 125.4C281.9 127.2 258.1 131.6 253.7 149.1C251.4 158.4 251.7 168.3 253.4 177.7C254.7 185.1 255.9 192.4 256.8 199.9C258.3 212.5 260 226.6 256.6 239L242.4 265C242.4 265 311.3 295.4 345.4 255.1C345.4 255.1 343.2 154.9 327.2 131.4C325.3 128.5 320.4 127.3 317.3 126.5C310.5 124.8 303.7 124.6 297 125.4Z" fill="url(#paint10_linear_197_256)"/>
<path d="M327.2 131.4C325.3 128.5 320.4 127.3 317.3 126.5C312.2 125.2 307 124.8 301.9 125V275.7C317.1 274.5 333 269.7 345.3 255.1C345.4 255.1 343.2 154.9 327.2 131.4Z" fill="url(#paint11_linear_197_256)"/>
<path d="M172.6 163.4C172.6 163.4 174.2 176.4 181.8 185.1C189.4 193.8 198.1 197.2 205.2 206.4C210.8 213.6 266.5 267 272.2 247.6C272.9 245 272 242.3 271 239.9C261.5 216.9 238.5 207.1 218.4 195L210.8 189.9C210.8 189.9 207.5 176.8 199.4 169.6L172.6 163.4Z" fill="url(#paint12_linear_197_256)"/>
<path d="M170 131.2L153.3 150.1C152.1 151.4 152.2 153.4 153.6 154.6L187.6 185.4C188.9 186.6 191 186.5 192.1 185.2L208.5 167.1C209.7 165.8 209.6 163.8 208.3 162.6L174.6 131C173.3 129.7 171.3 129.8 170 131.2Z" fill="url(#paint13_linear_197_256)"/>
<path d="M156.6 152.2L185.6 178.5L201.1 161.4L172.4 134.2L156.6 152.2Z" fill="url(#paint14_linear_197_256)"/>
<path d="M189.8 185.3C189.8 185.3 192.3 183.8 191.3 178.9C190.3 174.1 188 162.7 188 162.7C188 162.7 188 158.6 189.6 159.5C191.2 160.4 194.7 162.9 196 170C196 170 197.4 176.1 199 177.6C200.6 179.2 204.7 183.4 205.4 190.1C205.5 190.2 194 194.1 189.8 185.3Z" fill="url(#paint15_linear_197_256)"/>
<path d="M274.5 247.3C276.8 244.2 277.2 239.7 277.3 235.1C277.7 223.7 278.2 212.4 278.7 201C278.9 195.9 279.1 190.9 279.3 185.8C279.6 175.5 280.3 160.3 266.8 157.8C263.7 157.2 259.7 159.5 257.8 161.6C256.4 163.2 255.5 165.4 254.9 167.9C253.7 173.2 254.1 179.7 253.8 184.2C253.3 193.6 252.9 203 252.9 212.4C252.9 218.5 252.9 224.5 253.2 230.6C253.5 235.6 253.3 241.9 255.6 246.6C258.1 251.6 264.1 252.3 268.6 251.1C271.4 250.3 273.3 249 274.5 247.3Z" fill="url(#paint16_linear_197_256)"/>
<path d="M285.3 206.2C283.4 192.2 285.4 141.7 265.3 139.7C243.1 137.4 247.4 206.8 247.4 206.8L285.3 206.2Z" fill="url(#paint17_linear_197_256)"/>
<path d="M44.6 322.3C46.6 322 48.6 321.1 50.5 320.3C51 320.1 56.4 318.3 57 318.3C65.9 317.7 90.4 318.6 90.4 318.6L90 294.1C90 294.1 68.9 298.2 56.3 295.1C50 284.4 36.3 269.9 36.3 269.9C36.3 269.9 31.7 258 31.1 256.9C30.6 255.8 34.4 253 31.3 249.8C31.3 249.8 30.7 233.4 27.2 260.8C27.2 260.8 20.8 272.2 24.3 291C24.8 295.1 25.2 299.2 25.7 303.3C26.2 307.5 26.9 320.1 28.2 321.7C28.7 322.3 29.2 322.7 29.7 323C33.6 325.2 40.4 323 44.6 322.3Z" fill="url(#paint18_linear_197_256)"/>
<path d="M50.4001 320.4C49.3001 314.2 49.5001 307.5 50.0001 302C50.4001 298 51.4001 293.6 53.3001 289.7C47.6001 279 41.5001 265.5 41.5001 265.5C41.5001 265.5 37.2001 249.9 36.6001 248.8C36.1001 247.7 35.2001 244.8 32.1001 241.7C32.1001 241.7 26.5001 233.1 23.0001 260.5C23.0001 260.5 20.7001 272.4 24.2001 291.2C24.7001 295.3 25.1001 299.4 25.6001 303.5C26.1001 307.7 26.8001 320.3 28.1001 321.9C28.6001 322.5 29.1001 322.9 29.6001 323.2C33.5001 325.3 40.4001 323.1 44.5001 322.4C46.5001 322 48.5001 321.1 50.4001 320.4Z" fill="url(#paint19_linear_197_256)"/>
<path d="M78.5 318.5C107.4 322.5 170.8 328 206.6 315.8C212.2 313.9 218.3 308.2 218.9 302C219.4 297.2 217.4 290.2 213.3 287.3C209.9 284.9 198.6 284.1 194.7 284.3C183.6 284.8 112.5 290.5 79 293.2L78.5 318.5Z" fill="url(#paint20_linear_197_256)"/>
<path d="M382 147.7C364.8 135.1 353.6 114.9 353.6 91.9C353.6 53.5 384.7 22.4 423.1 22.4C461.5 22.4 492.6 53.5 492.6 91.9C492.6 114.8 481.3 135 464.2 147.7H494.5C506.6 132.3 514.1 113.1 514.1 91.9C514.1 41.7 473.4 1 423.2 1C373 1 332.3 41.7 332.3 91.9C332.3 113 339.8 132.2 351.9 147.7H382Z" fill="#F1F2F2" stroke="black" stroke-width="0.25" stroke-miterlimit="10"/>
<path d="M516.5 113.4H326.7C319.1 113.4 313 119.5 313 127.1V306.9C313 314.5 319.1 320.6 326.7 320.6H516.5C524.1 320.6 530.2 314.5 530.2 306.9V127.1C530.2 119.5 524.1 113.4 516.5 113.4ZM436.4 208.7V260.5C436.4 264.4 433.3 267.5 429.4 267.5H416.6C412.7 267.5 409.6 264.4 409.6 260.5V208.6C401 203.8 395 195 395.1 184.4C395.2 169.6 407.4 157.1 422.1 156.7C437.9 156.2 450.8 168.9 450.8 184.6C450.9 195.1 444.9 203.9 436.4 208.7Z" fill="url(#paint21_linear_197_256)" stroke="black" stroke-width="0.25" stroke-miterlimit="10"/>
<defs>
<linearGradient id="paint0_linear_197_256" x1="281.088" y1="287.646" x2="175.669" y2="162.637" gradientUnits="userSpaceOnUse">
<stop stop-color="#2A307C"/>
<stop offset="0.0251496" stop-color="#292F78"/>
<stop offset="0.1548" stop-color="#232964"/>
<stop offset="0.2919" stop-color="#1C2253"/>
<stop offset="0.4367" stop-color="#151D47"/>
<stop offset="0.5925" stop-color="#10183E"/>
<stop offset="0.7672" stop-color="#0D1539"/>
<stop offset="1" stop-color="#0B1438"/>
</linearGradient>
<linearGradient id="paint1_linear_197_256" x1="347.455" y1="272.719" x2="189.62" y2="315.481" gradientUnits="userSpaceOnUse">
<stop stop-color="#2A307C"/>
<stop offset="0.0251496" stop-color="#292F78"/>
<stop offset="0.1548" stop-color="#232964"/>
<stop offset="0.2919" stop-color="#1C2253"/>
<stop offset="0.4367" stop-color="#151D47"/>
<stop offset="0.5925" stop-color="#10183E"/>
<stop offset="0.7672" stop-color="#0D1539"/>
<stop offset="1" stop-color="#0B1438"/>
</linearGradient>
<linearGradient id="paint2_linear_197_256" x1="135.226" y1="311.42" x2="143.408" y2="245.298" gradientUnits="userSpaceOnUse">
<stop stop-color="#FCD1C2"/>
<stop offset="0.3786" stop-color="#FCCFC0"/>
<stop offset="0.5763" stop-color="#FBC8B8"/>
<stop offset="0.7322" stop-color="#FABEAB"/>
<stop offset="0.8661" stop-color="#F9AE99"/>
<stop offset="0.9849" stop-color="#F79C83"/>
<stop offset="1" stop-color="#F79980"/>
</linearGradient>
<linearGradient id="paint3_linear_197_256" x1="93.0415" y1="291.15" x2="181.078" y2="302.044" gradientUnits="userSpaceOnUse">
<stop stop-color="#2A307C"/>
<stop offset="0.0251496" stop-color="#292F78"/>
<stop offset="0.1548" stop-color="#232964"/>
<stop offset="0.2919" stop-color="#1C2253"/>
<stop offset="0.4367" stop-color="#151D47"/>
<stop offset="0.5925" stop-color="#10183E"/>
<stop offset="0.7672" stop-color="#0D1539"/>
<stop offset="1" stop-color="#0B1438"/>
</linearGradient>
<linearGradient id="paint4_linear_197_256" x1="172.703" y1="261.638" x2="189.462" y2="126.202" gradientUnits="userSpaceOnUse">
<stop stop-color="#2A307C"/>
<stop offset="0.0251496" stop-color="#292F78"/>
<stop offset="0.1548" stop-color="#232964"/>
<stop offset="0.2919" stop-color="#1C2253"/>
<stop offset="0.4367" stop-color="#151D47"/>
<stop offset="0.5925" stop-color="#10183E"/>
<stop offset="0.7672" stop-color="#0D1539"/>
<stop offset="1" stop-color="#0B1438"/>
</linearGradient>
<linearGradient id="paint5_linear_197_256" x1="252.479" y1="101.237" x2="243.274" y2="96.812" gradientUnits="userSpaceOnUse">
<stop stop-color="#E1B691"/>
<stop offset="1" stop-color="#EF9367"/>
</linearGradient>
<linearGradient id="paint6_linear_197_256" x1="301.856" y1="118.821" x2="270.728" y2="103.856" gradientUnits="userSpaceOnUse">
<stop stop-color="#FCD1C2"/>
<stop offset="0.3786" stop-color="#FCCFC0"/>
<stop offset="0.5763" stop-color="#FBC8B8"/>
<stop offset="0.7322" stop-color="#FABEAB"/>
<stop offset="0.8661" stop-color="#F9AE99"/>
<stop offset="0.9849" stop-color="#F79C83"/>
<stop offset="1" stop-color="#F79980"/>
</linearGradient>
<linearGradient id="paint7_linear_197_256" x1="296.458" y1="98.6539" x2="239.032" y2="71.0467" gradientUnits="userSpaceOnUse">
<stop stop-color="#FCD1C2"/>
<stop offset="0.3786" stop-color="#FCCFC0"/>
<stop offset="0.5763" stop-color="#FBC8B8"/>
<stop offset="0.7322" stop-color="#FABEAB"/>
<stop offset="0.8661" stop-color="#F9AE99"/>
<stop offset="0.9849" stop-color="#F79C83"/>
<stop offset="1" stop-color="#F79980"/>
</linearGradient>
<linearGradient id="paint8_linear_197_256" x1="308.225" y1="78.2094" x2="225.439" y2="84.469" gradientUnits="userSpaceOnUse">
<stop stop-color="#2A307C"/>
<stop offset="0.0251496" stop-color="#292F78"/>
<stop offset="0.1548" stop-color="#232964"/>
<stop offset="0.2919" stop-color="#1C2253"/>
<stop offset="0.4367" stop-color="#151D47"/>
<stop offset="0.5925" stop-color="#10183E"/>
<stop offset="0.7672" stop-color="#0D1539"/>
<stop offset="1" stop-color="#0B1438"/>
</linearGradient>
<linearGradient id="paint9_linear_197_256" x1="278.665" y1="93.871" x2="263.617" y2="86.6368" gradientUnits="userSpaceOnUse">
<stop stop-color="#FCD1C2"/>
<stop offset="0.3786" stop-color="#FCCFC0"/>
<stop offset="0.5763" stop-color="#FBC8B8"/>
<stop offset="0.7322" stop-color="#FABEAB"/>
<stop offset="0.8661" stop-color="#F9AE99"/>
<stop offset="0.9849" stop-color="#F79C83"/>
<stop offset="1" stop-color="#F79980"/>
</linearGradient>
<linearGradient id="paint10_linear_197_256" x1="243.271" y1="265.765" x2="345.483" y2="146.832" gradientUnits="userSpaceOnUse">
<stop stop-color="#6D64AC"/>
<stop offset="0.2988" stop-color="#7781BF"/>
<stop offset="0.6137" stop-color="#819ED2"/>
<stop offset="0.8581" stop-color="#88B2DF"/>
<stop offset="1" stop-color="#8BB9E4"/>
</linearGradient>
<linearGradient id="paint11_linear_197_256" x1="294.433" y1="220.382" x2="341.031" y2="172.09" gradientUnits="userSpaceOnUse">
<stop stop-color="#6D64AC"/>
<stop offset="0.2988" stop-color="#7781BF"/>
<stop offset="0.6137" stop-color="#819ED2"/>
<stop offset="0.8581" stop-color="#88B2DF"/>
<stop offset="1" stop-color="#8BB9E4"/>
</linearGradient>
<linearGradient id="paint12_linear_197_256" x1="219.128" y1="159.906" x2="226.307" y2="254.859" gradientUnits="userSpaceOnUse">
<stop stop-color="#FCD1C2"/>
<stop offset="0.3786" stop-color="#FCCFC0"/>
<stop offset="0.5763" stop-color="#FBC8B8"/>
<stop offset="0.7322" stop-color="#FABEAB"/>
<stop offset="0.8661" stop-color="#F9AE99"/>
<stop offset="0.9849" stop-color="#F79C83"/>
<stop offset="1" stop-color="#F79980"/>
</linearGradient>
<linearGradient id="paint13_linear_197_256" x1="153.101" y1="160.279" x2="208.707" y2="156.075" gradientUnits="userSpaceOnUse">
<stop stop-color="#1C164A"/>
<stop offset="0.1697" stop-color="#1E194E"/>
<stop offset="0.3755" stop-color="#252359"/>
<stop offset="0.6" stop-color="#30326C"/>
<stop offset="0.8361" stop-color="#3F4789"/>
<stop offset="1" stop-color="#4B5AA8"/>
</linearGradient>
<linearGradient id="paint14_linear_197_256" x1="157.092" y1="158.051" x2="200.686" y2="154.755" gradientUnits="userSpaceOnUse">
<stop offset="0.0456989" stop-color="#F8F2F8"/>
<stop offset="0.2324" stop-color="#F3F0F8"/>
<stop offset="0.412" stop-color="#E7EAF6"/>
<stop offset="0.5889" stop-color="#D3E0F3"/>
<stop offset="0.764" stop-color="#B8D3EF"/>
<stop offset="0.9364" stop-color="#94C4E9"/>
<stop offset="1" stop-color="#84BEE7"/>
</linearGradient>
<linearGradient id="paint15_linear_197_256" x1="203.454" y1="191.619" x2="183.907" y2="162.989" gradientUnits="userSpaceOnUse">
<stop stop-color="#FCD1C2"/>
<stop offset="0.3786" stop-color="#FCCFC0"/>
<stop offset="0.5763" stop-color="#FBC8B8"/>
<stop offset="0.7322" stop-color="#FABEAB"/>
<stop offset="0.8661" stop-color="#F9AE99"/>
<stop offset="0.9849" stop-color="#F79C83"/>
<stop offset="1" stop-color="#F79980"/>
</linearGradient>
<linearGradient id="paint16_linear_197_256" x1="262.893" y1="157.862" x2="269.949" y2="251.228" gradientUnits="userSpaceOnUse">
<stop stop-color="#FCD1C2"/>
<stop offset="0.3786" stop-color="#FCCFC0"/>
<stop offset="0.5763" stop-color="#FBC8B8"/>
<stop offset="0.7322" stop-color="#FABEAB"/>
<stop offset="0.8661" stop-color="#F9AE99"/>
<stop offset="0.9849" stop-color="#F79C83"/>
<stop offset="1" stop-color="#F79980"/>
</linearGradient>
<linearGradient id="paint17_linear_197_256" x1="294.222" y1="204.887" x2="231.809" y2="150.381" gradientUnits="userSpaceOnUse">
<stop stop-color="#6D64AC"/>
<stop offset="0.2988" stop-color="#7781BF"/>
<stop offset="0.6137" stop-color="#819ED2"/>
<stop offset="0.8581" stop-color="#88B2DF"/>
<stop offset="1" stop-color="#8BB9E4"/>
</linearGradient>
<linearGradient id="paint18_linear_197_256" x1="22.8684" y1="283.95" x2="92.2559" y2="288.264" gradientUnits="userSpaceOnUse">
<stop stop-color="#FCD1C2"/>
<stop offset="0.3786" stop-color="#FCCFC0"/>
<stop offset="0.5763" stop-color="#FBC8B8"/>
<stop offset="0.7322" stop-color="#FABEAB"/>
<stop offset="0.8661" stop-color="#F9AE99"/>
<stop offset="0.9849" stop-color="#F79C83"/>
<stop offset="1" stop-color="#F79980"/>
</linearGradient>
<linearGradient id="paint19_linear_197_256" x1="44.7009" y1="242.719" x2="31.0084" y2="323.707" gradientUnits="userSpaceOnUse">
<stop stop-color="#2A307C"/>
<stop offset="0.0251496" stop-color="#292F78"/>
<stop offset="0.1548" stop-color="#232964"/>
<stop offset="0.2919" stop-color="#1C2253"/>
<stop offset="0.4367" stop-color="#151D47"/>
<stop offset="0.5925" stop-color="#10183E"/>
<stop offset="0.7672" stop-color="#0D1539"/>
<stop offset="1" stop-color="#0B1438"/>
</linearGradient>
<linearGradient id="paint20_linear_197_256" x1="78.6329" y1="298.406" x2="218.598" y2="307.108" gradientUnits="userSpaceOnUse">
<stop stop-color="#2A307C"/>
<stop offset="0.0251496" stop-color="#292F78"/>
<stop offset="0.1548" stop-color="#232964"/>
<stop offset="0.2919" stop-color="#1C2253"/>
<stop offset="0.4367" stop-color="#151D47"/>
<stop offset="0.5925" stop-color="#10183E"/>
<stop offset="0.7672" stop-color="#0D1539"/>
<stop offset="1" stop-color="#0B1438"/>
</linearGradient>
<linearGradient id="paint21_linear_197_256" x1="421.595" y1="256.254" x2="421.595" y2="421.705" gradientUnits="userSpaceOnUse">
<stop stop-color="#EBEEEF"/>
<stop offset="0.079238" stop-color="#DFE5EE"/>
<stop offset="0.2317" stop-color="#CDDBED"/>
<stop offset="0.3777" stop-color="#C3D6EE"/>
<stop offset="0.5089" stop-color="#BFD4EE"/>
</linearGradient>
</defs>
</svg>
